<svg width="17" height="17" viewBox="0 0 17 17" fill="none" xmlns="http://www.w3.org/2000/svg">
<path d="M8.3318 0C6.82323 0.00027722 5.34302 0.41006 4.04908 1.18564C2.75513 1.96121 1.69599 3.07349 0.984637 4.40382C0.27328 5.73415 -0.0636106 7.23263 0.00990175 8.73941C0.0834141 10.2462 0.564572 11.7048 1.40205 12.9595C2.23953 14.2143 3.40191 15.2182 4.7652 15.8641C6.1285 16.5101 7.64157 16.7738 9.14301 16.6272C10.6444 16.4807 12.0779 15.9293 13.2906 15.0319C14.5032 14.1345 15.4495 12.9247 16.0285 11.5317C16.3126 10.8483 15.6318 10.1617 14.9468 10.44C13.7728 10.9156 12.4692 10.9646 11.2628 10.5787C10.0563 10.1927 9.02327 9.39619 8.34326 8.32752C7.66324 7.25885 7.37925 5.98565 7.54067 4.72929C7.7021 3.47294 8.29872 2.31289 9.2268 1.45083L9.29097 1.38417C9.75014 0.859167 9.38514 0.00666668 8.6593 0.00666668H8.43764L8.38097 0.00166665L8.33097 0H8.3318Z" fill="white"/>
</svg>
